<mxfile host="65bd71144e">
    <diagram id="p5CkuB5yCoUadyFJ2r1V" name="Page-1">
        <mxGraphModel dx="660" dy="614" grid="1" gridSize="10" guides="1" tooltips="1" connect="1" arrows="1" fold="1" page="0" pageScale="1" pageWidth="850" pageHeight="1100" background="none" math="0" shadow="0">
            <root>
                <mxCell id="0"/>
                <mxCell id="1" parent="0"/>
                <mxCell id="afoW45hHxaWLcfI0gZBS-33" style="edgeStyle=orthogonalEdgeStyle;rounded=0;orthogonalLoop=1;jettySize=auto;html=1;entryX=0.5;entryY=0;entryDx=0;entryDy=0;fontSize=8;" parent="1" source="afoW45hHxaWLcfI0gZBS-1" target="afoW45hHxaWLcfI0gZBS-31" edge="1">
                    <mxGeometry relative="1" as="geometry"/>
                </mxCell>
                <mxCell id="afoW45hHxaWLcfI0gZBS-34" style="edgeStyle=orthogonalEdgeStyle;rounded=0;orthogonalLoop=1;jettySize=auto;html=1;entryX=0.5;entryY=0;entryDx=0;entryDy=0;fontSize=8;" parent="1" source="afoW45hHxaWLcfI0gZBS-1" target="afoW45hHxaWLcfI0gZBS-32" edge="1">
                    <mxGeometry relative="1" as="geometry"/>
                </mxCell>
                <mxCell id="afoW45hHxaWLcfI0gZBS-1" value="Stored&lt;br&gt;Config" style="ellipse;whiteSpace=wrap;html=1;aspect=fixed;" parent="1" vertex="1">
                    <mxGeometry x="40" y="200" width="80" height="80" as="geometry"/>
                </mxCell>
                <mxCell id="afoW45hHxaWLcfI0gZBS-41" style="edgeStyle=orthogonalEdgeStyle;rounded=0;orthogonalLoop=1;jettySize=auto;html=1;entryX=0.5;entryY=0;entryDx=0;entryDy=0;fontSize=8;" parent="1" source="afoW45hHxaWLcfI0gZBS-2" target="afoW45hHxaWLcfI0gZBS-37" edge="1">
                    <mxGeometry relative="1" as="geometry"/>
                </mxCell>
                <mxCell id="afoW45hHxaWLcfI0gZBS-42" style="edgeStyle=orthogonalEdgeStyle;rounded=0;orthogonalLoop=1;jettySize=auto;html=1;entryX=0.5;entryY=0;entryDx=0;entryDy=0;fontSize=8;" parent="1" source="afoW45hHxaWLcfI0gZBS-2" target="afoW45hHxaWLcfI0gZBS-38" edge="1">
                    <mxGeometry relative="1" as="geometry"/>
                </mxCell>
                <mxCell id="afoW45hHxaWLcfI0gZBS-2" value="Stage Settings&lt;br&gt;(States)" style="ellipse;whiteSpace=wrap;html=1;aspect=fixed;" parent="1" vertex="1">
                    <mxGeometry x="240" y="200" width="80" height="80" as="geometry"/>
                </mxCell>
                <mxCell id="afoW45hHxaWLcfI0gZBS-29" style="edgeStyle=orthogonalEdgeStyle;rounded=0;orthogonalLoop=1;jettySize=auto;html=1;entryX=0.5;entryY=0;entryDx=0;entryDy=0;fontSize=8;" parent="1" source="afoW45hHxaWLcfI0gZBS-3" target="afoW45hHxaWLcfI0gZBS-27" edge="1">
                    <mxGeometry relative="1" as="geometry"/>
                </mxCell>
                <mxCell id="afoW45hHxaWLcfI0gZBS-30" style="edgeStyle=orthogonalEdgeStyle;rounded=0;orthogonalLoop=1;jettySize=auto;html=1;entryX=0.5;entryY=0;entryDx=0;entryDy=0;fontSize=8;" parent="1" source="afoW45hHxaWLcfI0gZBS-3" target="afoW45hHxaWLcfI0gZBS-28" edge="1">
                    <mxGeometry relative="1" as="geometry"/>
                </mxCell>
                <mxCell id="afoW45hHxaWLcfI0gZBS-3" value="Media" style="ellipse;whiteSpace=wrap;html=1;aspect=fixed;" parent="1" vertex="1">
                    <mxGeometry x="440" y="200" width="80" height="80" as="geometry"/>
                </mxCell>
                <mxCell id="afoW45hHxaWLcfI0gZBS-56" style="edgeStyle=orthogonalEdgeStyle;rounded=0;orthogonalLoop=1;jettySize=auto;html=1;entryX=0.5;entryY=0;entryDx=0;entryDy=0;fontSize=8;" parent="1" source="afoW45hHxaWLcfI0gZBS-4" target="afoW45hHxaWLcfI0gZBS-49" edge="1">
                    <mxGeometry relative="1" as="geometry"/>
                </mxCell>
                <mxCell id="afoW45hHxaWLcfI0gZBS-57" style="edgeStyle=orthogonalEdgeStyle;rounded=0;orthogonalLoop=1;jettySize=auto;html=1;entryX=0.5;entryY=0;entryDx=0;entryDy=0;fontSize=8;" parent="1" source="afoW45hHxaWLcfI0gZBS-4" target="afoW45hHxaWLcfI0gZBS-50" edge="1">
                    <mxGeometry relative="1" as="geometry"/>
                </mxCell>
                <mxCell id="afoW45hHxaWLcfI0gZBS-4" value="Stage Config &lt;font style=&quot;font-size: 8px&quot;&gt;(Not user setable)&lt;/font&gt;" style="ellipse;whiteSpace=wrap;html=1;aspect=fixed;" parent="1" vertex="1">
                    <mxGeometry x="640" y="200" width="80" height="80" as="geometry"/>
                </mxCell>
                <mxCell id="afoW45hHxaWLcfI0gZBS-27" value="media" style="rounded=1;whiteSpace=wrap;html=1;fontSize=8;" parent="1" vertex="1">
                    <mxGeometry x="400" y="320" width="80" height="40" as="geometry"/>
                </mxCell>
                <mxCell id="afoW45hHxaWLcfI0gZBS-28" value="setMedia" style="rounded=1;whiteSpace=wrap;html=1;fontSize=8;" parent="1" vertex="1">
                    <mxGeometry x="480" y="320" width="80" height="40" as="geometry"/>
                </mxCell>
                <mxCell id="afoW45hHxaWLcfI0gZBS-31" value="stageBg" style="rounded=1;whiteSpace=wrap;html=1;fontSize=8;" parent="1" vertex="1">
                    <mxGeometry y="320" width="80" height="40" as="geometry"/>
                </mxCell>
                <mxCell id="afoW45hHxaWLcfI0gZBS-32" value="setStageBg" style="rounded=1;whiteSpace=wrap;html=1;fontSize=8;" parent="1" vertex="1">
                    <mxGeometry x="80" y="320" width="80" height="40" as="geometry"/>
                </mxCell>
                <mxCell id="afoW45hHxaWLcfI0gZBS-35" value="showGuides" style="rounded=1;whiteSpace=wrap;html=1;fontSize=8;" parent="1" vertex="1">
                    <mxGeometry y="360" width="80" height="40" as="geometry"/>
                </mxCell>
                <mxCell id="afoW45hHxaWLcfI0gZBS-36" value="setShowGuides" style="rounded=1;whiteSpace=wrap;html=1;fontSize=8;" parent="1" vertex="1">
                    <mxGeometry x="80" y="360" width="80" height="40" as="geometry"/>
                </mxCell>
                <mxCell id="afoW45hHxaWLcfI0gZBS-37" value="stageDrag" style="rounded=1;whiteSpace=wrap;html=1;fontSize=8;" parent="1" vertex="1">
                    <mxGeometry x="200" y="320" width="80" height="40" as="geometry"/>
                </mxCell>
                <mxCell id="afoW45hHxaWLcfI0gZBS-38" value="setStageDrag" style="rounded=1;whiteSpace=wrap;html=1;fontSize=8;" parent="1" vertex="1">
                    <mxGeometry x="280" y="320" width="80" height="40" as="geometry"/>
                </mxCell>
                <mxCell id="afoW45hHxaWLcfI0gZBS-39" value="isGuides" style="rounded=1;whiteSpace=wrap;html=1;fontSize=8;" parent="1" vertex="1">
                    <mxGeometry x="200" y="360" width="80" height="40" as="geometry"/>
                </mxCell>
                <mxCell id="afoW45hHxaWLcfI0gZBS-40" value="setGuides" style="rounded=1;whiteSpace=wrap;html=1;fontSize=8;" parent="1" vertex="1">
                    <mxGeometry x="280" y="360" width="80" height="40" as="geometry"/>
                </mxCell>
                <mxCell id="afoW45hHxaWLcfI0gZBS-43" value="isResize" style="rounded=1;whiteSpace=wrap;html=1;fontSize=8;" parent="1" vertex="1">
                    <mxGeometry x="200" y="400" width="80" height="40" as="geometry"/>
                </mxCell>
                <mxCell id="afoW45hHxaWLcfI0gZBS-44" value="setResize" style="rounded=1;whiteSpace=wrap;html=1;fontSize=8;" parent="1" vertex="1">
                    <mxGeometry x="280" y="400" width="80" height="40" as="geometry"/>
                </mxCell>
                <mxCell id="afoW45hHxaWLcfI0gZBS-45" value="isRot" style="rounded=1;whiteSpace=wrap;html=1;fontSize=8;" parent="1" vertex="1">
                    <mxGeometry x="200" y="440" width="80" height="40" as="geometry"/>
                </mxCell>
                <mxCell id="afoW45hHxaWLcfI0gZBS-46" value="setRot" style="rounded=1;whiteSpace=wrap;html=1;fontSize=8;" parent="1" vertex="1">
                    <mxGeometry x="280" y="440" width="80" height="40" as="geometry"/>
                </mxCell>
                <mxCell id="afoW45hHxaWLcfI0gZBS-47" value="rotateFree" style="rounded=1;whiteSpace=wrap;html=1;fontSize=8;" parent="1" vertex="1">
                    <mxGeometry x="200" y="480" width="80" height="40" as="geometry"/>
                </mxCell>
                <mxCell id="afoW45hHxaWLcfI0gZBS-48" value="setRotateFree" style="rounded=1;whiteSpace=wrap;html=1;fontSize=8;" parent="1" vertex="1">
                    <mxGeometry x="280" y="480" width="80" height="40" as="geometry"/>
                </mxCell>
                <mxCell id="afoW45hHxaWLcfI0gZBS-49" value="width/height" style="rounded=1;whiteSpace=wrap;html=1;fontSize=8;" parent="1" vertex="1">
                    <mxGeometry x="600" y="320" width="80" height="40" as="geometry"/>
                </mxCell>
                <mxCell id="afoW45hHxaWLcfI0gZBS-50" value="setDims" style="rounded=1;whiteSpace=wrap;html=1;fontSize=8;" parent="1" vertex="1">
                    <mxGeometry x="680" y="320" width="80" height="40" as="geometry"/>
                </mxCell>
                <mxCell id="afoW45hHxaWLcfI0gZBS-51" value="X/Y" style="rounded=1;whiteSpace=wrap;html=1;fontSize=8;" parent="1" vertex="1">
                    <mxGeometry x="600" y="360" width="80" height="40" as="geometry"/>
                </mxCell>
                <mxCell id="afoW45hHxaWLcfI0gZBS-52" value="setPos" style="rounded=1;whiteSpace=wrap;html=1;fontSize=8;" parent="1" vertex="1">
                    <mxGeometry x="680" y="360" width="80" height="40" as="geometry"/>
                </mxCell>
                <mxCell id="afoW45hHxaWLcfI0gZBS-53" value="scale X/Y" style="rounded=1;whiteSpace=wrap;html=1;fontSize=8;" parent="1" vertex="1">
                    <mxGeometry x="600" y="400" width="80" height="40" as="geometry"/>
                </mxCell>
                <mxCell id="afoW45hHxaWLcfI0gZBS-54" value="setScale" style="rounded=1;whiteSpace=wrap;html=1;fontSize=8;" parent="1" vertex="1">
                    <mxGeometry x="680" y="400" width="80" height="40" as="geometry"/>
                </mxCell>
                <mxCell id="afoW45hHxaWLcfI0gZBS-58" value="" style="sketch=0;html=1;aspect=fixed;strokeColor=none;shadow=0;align=center;verticalAlign=top;fillColor=#2D9C5E;shape=mxgraph.gcp2.check;fontSize=8;" parent="1" vertex="1">
                    <mxGeometry x="95" y="200" width="25" height="20" as="geometry"/>
                </mxCell>
                <mxCell id="afoW45hHxaWLcfI0gZBS-59" value="" style="sketch=0;html=1;aspect=fixed;strokeColor=none;shadow=0;align=center;verticalAlign=top;fillColor=#2D9C5E;shape=mxgraph.gcp2.check;fontSize=8;" parent="1" vertex="1">
                    <mxGeometry x="495" y="200" width="25" height="20" as="geometry"/>
                </mxCell>
                <mxCell id="afoW45hHxaWLcfI0gZBS-60" value="" style="sketch=0;html=1;aspect=fixed;strokeColor=none;shadow=0;align=center;verticalAlign=top;fillColor=#2D9C5E;shape=mxgraph.gcp2.check;fontSize=8;" parent="1" vertex="1">
                    <mxGeometry x="695" y="200" width="25" height="20" as="geometry"/>
                </mxCell>
                <mxCell id="afoW45hHxaWLcfI0gZBS-61" value="" style="sketch=0;html=1;aspect=fixed;strokeColor=none;shadow=0;align=center;verticalAlign=top;fillColor=#2D9C5E;shape=mxgraph.gcp2.check;fontSize=8;" parent="1" vertex="1">
                    <mxGeometry x="295" y="200" width="25" height="20" as="geometry"/>
                </mxCell>
                <mxCell id="afoW45hHxaWLcfI0gZBS-67" style="edgeStyle=orthogonalEdgeStyle;rounded=0;orthogonalLoop=1;jettySize=auto;html=1;entryX=0.5;entryY=0;entryDx=0;entryDy=0;fontSize=12;" parent="1" source="afoW45hHxaWLcfI0gZBS-62" target="afoW45hHxaWLcfI0gZBS-66" edge="1">
                    <mxGeometry relative="1" as="geometry"/>
                </mxCell>
                <mxCell id="afoW45hHxaWLcfI0gZBS-62" value="&lt;span style=&quot;font-size: 12px&quot;&gt;Animation&lt;br&gt;&lt;/span&gt;Controllers" style="rounded=0;whiteSpace=wrap;html=1;fontSize=8;" parent="1" vertex="1">
                    <mxGeometry x="40" y="560" width="80" height="80" as="geometry"/>
                </mxCell>
                <mxCell id="afoW45hHxaWLcfI0gZBS-63" value="LinkField Controller" style="rounded=1;whiteSpace=wrap;html=1;fontSize=12;" parent="1" vertex="1">
                    <mxGeometry x="40" y="720" width="80" height="40" as="geometry"/>
                </mxCell>
                <mxCell id="afoW45hHxaWLcfI0gZBS-64" value="MenuButtons&lt;br&gt;Controller" style="rounded=1;whiteSpace=wrap;html=1;fontSize=12;" parent="1" vertex="1">
                    <mxGeometry x="40" y="760" width="80" height="40" as="geometry"/>
                </mxCell>
                <mxCell id="afoW45hHxaWLcfI0gZBS-65" value="DropZone&lt;br&gt;Controller" style="rounded=1;whiteSpace=wrap;html=1;fontSize=12;" parent="1" vertex="1">
                    <mxGeometry x="40" y="800" width="80" height="40" as="geometry"/>
                </mxCell>
                <mxCell id="afoW45hHxaWLcfI0gZBS-66" value="SettingsMenu&lt;br&gt;Controller" style="rounded=1;whiteSpace=wrap;html=1;fontSize=12;" parent="1" vertex="1">
                    <mxGeometry x="40" y="680" width="80" height="40" as="geometry"/>
                </mxCell>
                <mxCell id="afoW45hHxaWLcfI0gZBS-76" value="" style="sketch=0;html=1;aspect=fixed;strokeColor=none;shadow=0;align=center;verticalAlign=top;fillColor=#2D9C5E;shape=mxgraph.gcp2.check;fontSize=8;" parent="1" vertex="1">
                    <mxGeometry x="110" y="670" width="25" height="20" as="geometry"/>
                </mxCell>
                <mxCell id="afoW45hHxaWLcfI0gZBS-77" value="" style="sketch=0;html=1;aspect=fixed;strokeColor=none;shadow=0;align=center;verticalAlign=top;fillColor=#2D9C5E;shape=mxgraph.gcp2.check;fontSize=8;" parent="1" vertex="1">
                    <mxGeometry x="110" y="710" width="25" height="20" as="geometry"/>
                </mxCell>
                <mxCell id="afoW45hHxaWLcfI0gZBS-80" style="edgeStyle=orthogonalEdgeStyle;rounded=0;orthogonalLoop=1;jettySize=auto;html=1;entryX=0.5;entryY=0;entryDx=0;entryDy=0;fontSize=8;" parent="1" source="afoW45hHxaWLcfI0gZBS-82" target="afoW45hHxaWLcfI0gZBS-83" edge="1">
                    <mxGeometry relative="1" as="geometry"/>
                </mxCell>
                <mxCell id="afoW45hHxaWLcfI0gZBS-81" style="edgeStyle=orthogonalEdgeStyle;rounded=0;orthogonalLoop=1;jettySize=auto;html=1;entryX=0.5;entryY=0;entryDx=0;entryDy=0;fontSize=8;" parent="1" source="afoW45hHxaWLcfI0gZBS-82" target="afoW45hHxaWLcfI0gZBS-84" edge="1">
                    <mxGeometry relative="1" as="geometry"/>
                </mxCell>
                <mxCell id="afoW45hHxaWLcfI0gZBS-91" style="edgeStyle=orthogonalEdgeStyle;rounded=0;orthogonalLoop=1;jettySize=auto;html=1;entryX=0.5;entryY=0;entryDx=0;entryDy=0;fontSize=8;" parent="1" source="afoW45hHxaWLcfI0gZBS-82" target="afoW45hHxaWLcfI0gZBS-89" edge="1">
                    <mxGeometry relative="1" as="geometry"/>
                </mxCell>
                <mxCell id="afoW45hHxaWLcfI0gZBS-82" value="Selection&lt;br&gt;&lt;font style=&quot;font-size: 8px&quot;&gt;(Not user setable)&lt;/font&gt;" style="ellipse;whiteSpace=wrap;html=1;aspect=fixed;" parent="1" vertex="1">
                    <mxGeometry x="840" y="200" width="80" height="80" as="geometry"/>
                </mxCell>
                <mxCell id="afoW45hHxaWLcfI0gZBS-83" value="selectedId" style="rounded=1;whiteSpace=wrap;html=1;fontSize=8;" parent="1" vertex="1">
                    <mxGeometry x="920" y="320" width="80" height="40" as="geometry"/>
                </mxCell>
                <mxCell id="afoW45hHxaWLcfI0gZBS-84" value="selectShape" style="rounded=1;whiteSpace=wrap;html=1;fontSize=8;" parent="1" vertex="1">
                    <mxGeometry x="1000" y="320" width="80" height="40" as="geometry"/>
                </mxCell>
                <mxCell id="afoW45hHxaWLcfI0gZBS-85" value="nodesArray" style="rounded=1;whiteSpace=wrap;html=1;fontSize=8;" parent="1" vertex="1">
                    <mxGeometry x="920" y="360" width="80" height="40" as="geometry"/>
                </mxCell>
                <mxCell id="afoW45hHxaWLcfI0gZBS-86" value="setNodes" style="rounded=1;whiteSpace=wrap;html=1;fontSize=8;" parent="1" vertex="1">
                    <mxGeometry x="1000" y="360" width="80" height="40" as="geometry"/>
                </mxCell>
                <mxCell id="afoW45hHxaWLcfI0gZBS-87" value="States" style="text;html=1;strokeColor=none;fillColor=none;align=center;verticalAlign=middle;whiteSpace=wrap;rounded=0;fontSize=8;" parent="1" vertex="1">
                    <mxGeometry x="970" y="290" width="60" height="30" as="geometry"/>
                </mxCell>
                <mxCell id="afoW45hHxaWLcfI0gZBS-89" value="stageRef" style="rounded=1;whiteSpace=wrap;html=1;fontSize=8;" parent="1" vertex="1">
                    <mxGeometry x="800" y="320" width="80" height="40" as="geometry"/>
                </mxCell>
                <mxCell id="afoW45hHxaWLcfI0gZBS-92" value="Refs" style="text;html=1;strokeColor=none;fillColor=none;align=center;verticalAlign=middle;whiteSpace=wrap;rounded=0;fontSize=8;" parent="1" vertex="1">
                    <mxGeometry x="800" y="290" width="40" height="30" as="geometry"/>
                </mxCell>
                <mxCell id="afoW45hHxaWLcfI0gZBS-93" value="layerRef" style="rounded=1;whiteSpace=wrap;html=1;fontSize=8;" parent="1" vertex="1">
                    <mxGeometry x="800" y="360" width="80" height="40" as="geometry"/>
                </mxCell>
                <mxCell id="afoW45hHxaWLcfI0gZBS-94" value="trRef" style="rounded=1;whiteSpace=wrap;html=1;fontSize=8;" parent="1" vertex="1">
                    <mxGeometry x="800" y="400" width="80" height="40" as="geometry"/>
                </mxCell>
                <mxCell id="afoW45hHxaWLcfI0gZBS-95" value="selectionRectRef" style="rounded=1;whiteSpace=wrap;html=1;fontSize=8;" parent="1" vertex="1">
                    <mxGeometry x="800" y="440" width="80" height="40" as="geometry"/>
                </mxCell>
                <mxCell id="afoW45hHxaWLcfI0gZBS-96" value="curSelection" style="rounded=1;whiteSpace=wrap;html=1;fontSize=8;" parent="1" vertex="1">
                    <mxGeometry x="800" y="480" width="80" height="40" as="geometry"/>
                </mxCell>
                <mxCell id="afoW45hHxaWLcfI0gZBS-97" value="" style="sketch=0;html=1;aspect=fixed;strokeColor=none;shadow=0;align=center;verticalAlign=top;fillColor=#2D9C5E;shape=mxgraph.gcp2.check;fontSize=8;" parent="1" vertex="1">
                    <mxGeometry x="895" y="200" width="25" height="20" as="geometry"/>
                </mxCell>
                <mxCell id="afoW45hHxaWLcfI0gZBS-99" value="" style="sketch=0;html=1;aspect=fixed;strokeColor=none;shadow=0;align=center;verticalAlign=top;fillColor=#2D9C5E;shape=mxgraph.gcp2.check;fontSize=8;" parent="1" vertex="1">
                    <mxGeometry x="110" y="750" width="25" height="20" as="geometry"/>
                </mxCell>
                <mxCell id="afoW45hHxaWLcfI0gZBS-101" value="" style="sketch=0;html=1;aspect=fixed;strokeColor=none;shadow=0;align=center;verticalAlign=top;fillColor=#2D9C5E;shape=mxgraph.gcp2.check;fontSize=8;" parent="1" vertex="1">
                    <mxGeometry x="110" y="790" width="25" height="20" as="geometry"/>
                </mxCell>
            </root>
        </mxGraphModel>
    </diagram>
</mxfile>